STARTFONT 2.1
COMMENT
COMMENT Converted from OpenType font "Silkscreen-Regular.ttf" by "otf2bdf 3.0".
COMMENT
FONT -FreeType-Silkscreen-Medium-R-Normal--22-160-100-100-P-104-ISO10646-1
SIZE 16 100 100
FONTBOUNDINGBOX 29 29 -4 -6
STARTPROPERTIES 19
FOUNDRY "FreeType"
FAMILY_NAME "Silkscreen"
WEIGHT_NAME "Medium"
SLANT "R"
SETWIDTH_NAME "Normal"
ADD_STYLE_NAME ""
PIXEL_SIZE 22
POINT_SIZE 160
RESOLUTION_X 100
RESOLUTION_Y 100
SPACING "P"
AVERAGE_WIDTH 104
CHARSET_REGISTRY "ISO10646"
CHARSET_ENCODING "1"
FONT_ASCENT 22
FONT_DESCENT 5
COPYRIGHT "Copyright 2001 The Silkscreen Project Authors (https://github.com/googlefonts/silkscreen)"
_OTF_FONTFILE "Silkscreen-Regular.ttf"
_OTF_PSNAME "Silkscreen-Regular"
ENDPROPERTIES
CHARS 226
STARTCHAR 000D
ENCODING 13
SWIDTH 495 0
DWIDTH 11 0
BBX 0 0 0 0
BITMAP
ENDCHAR
STARTCHAR 0020
ENCODING 32
SWIDTH 495 0
DWIDTH 11 0
BBX 0 0 0 0
BITMAP
ENDCHAR
STARTCHAR 0021
ENCODING 33
SWIDTH 360 0
DWIDTH 8 0
BBX 3 14 3 0
BITMAP
E0
E0
E0
E0
E0
E0
E0
E0
00
00
00
E0
E0
E0
ENDCHAR
STARTCHAR 0022
ENCODING 34
SWIDTH 630 0
DWIDTH 14 0
BBX 8 6 3 8
BITMAP
E7
E7
E7
E7
E7
E7
ENDCHAR
STARTCHAR 0023
ENCODING 35
SWIDTH 855 0
DWIDTH 19 0
BBX 14 14 3 0
BITMAP
38E0
38E0
38E0
FFFC
FFFC
FFFC
38E0
38E0
FFFC
FFFC
FFFC
38E0
38E0
38E0
ENDCHAR
STARTCHAR 0024
ENCODING 36
SWIDTH 765 0
DWIDTH 17 0
BBX 11 20 3 -3
BITMAP
0700
0700
0700
3FE0
3FE0
3FE0
E000
E000
E000
3F00
3F00
00E0
00E0
00E0
FF00
FF00
FF00
3800
3800
3800
ENDCHAR
STARTCHAR 0025
ENCODING 37
SWIDTH 855 0
DWIDTH 19 0
BBX 14 14 3 0
BITMAP
F8E0
F8E0
F8E0
F8E0
F8E0
F8E0
0700
0700
38FC
38FC
38FC
38FC
38FC
38FC
ENDCHAR
STARTCHAR 0026
ENCODING 38
SWIDTH 765 0
DWIDTH 17 0
BBX 11 20 3 -3
BITMAP
0700
0700
0700
3FE0
3FE0
3FE0
E000
E000
E000
3F00
3F00
E000
E000
E000
3FE0
3FE0
3FE0
0700
0700
0700
ENDCHAR
STARTCHAR 0027
ENCODING 39
SWIDTH 360 0
DWIDTH 8 0
BBX 3 6 3 8
BITMAP
E0
E0
E0
E0
E0
E0
ENDCHAR
STARTCHAR 0028
ENCODING 40
SWIDTH 495 0
DWIDTH 11 0
BBX 5 14 3 0
BITMAP
38
38
38
E0
E0
E0
E0
E0
E0
E0
E0
38
38
38
ENDCHAR
STARTCHAR 0029
ENCODING 41
SWIDTH 495 0
DWIDTH 11 0
BBX 5 14 3 0
BITMAP
E0
E0
E0
38
38
38
38
38
38
38
38
E0
E0
E0
ENDCHAR
STARTCHAR 002A
ENCODING 42
SWIDTH 855 0
DWIDTH 19 0
BBX 14 14 3 0
BITMAP
0700
0700
0700
E71C
E71C
E71C
3FE0
3FE0
E71C
E71C
E71C
0700
0700
0700
ENDCHAR
STARTCHAR 002B
ENCODING 43
SWIDTH 855 0
DWIDTH 19 0
BBX 14 14 3 0
BITMAP
0700
0700
0700
0700
0700
0700
FFFC
FFFC
FFFC
0700
0700
0700
0700
0700
ENDCHAR
STARTCHAR 002C
ENCODING 44
SWIDTH 495 0
DWIDTH 11 0
BBX 5 6 3 -3
BITMAP
38
38
38
E0
E0
E0
ENDCHAR
STARTCHAR 002D
ENCODING 45
SWIDTH 630 0
DWIDTH 14 0
BBX 8 3 3 6
BITMAP
FF
FF
FF
ENDCHAR
STARTCHAR 002E
ENCODING 46
SWIDTH 360 0
DWIDTH 8 0
BBX 3 3 3 0
BITMAP
E0
E0
E0
ENDCHAR
STARTCHAR 002F
ENCODING 47
SWIDTH 630 0
DWIDTH 14 0
BBX 8 14 3 0
BITMAP
07
07
07
07
07
07
38
38
E0
E0
E0
E0
E0
E0
ENDCHAR
STARTCHAR 0030
ENCODING 48
SWIDTH 765 0
DWIDTH 17 0
BBX 11 14 3 0
BITMAP
3F00
3F00
3F00
E0E0
E0E0
E0E0
E0E0
E0E0
E0E0
E0E0
E0E0
3F00
3F00
3F00
ENDCHAR
STARTCHAR 0031
ENCODING 49
SWIDTH 630 0
DWIDTH 14 0
BBX 8 14 3 0
BITMAP
F8
F8
F8
38
38
38
38
38
38
38
38
FF
FF
FF
ENDCHAR
STARTCHAR 0032
ENCODING 50
SWIDTH 765 0
DWIDTH 17 0
BBX 11 14 3 0
BITMAP
FF00
FF00
FF00
00E0
00E0
00E0
3F00
3F00
E000
E000
E000
FFE0
FFE0
FFE0
ENDCHAR
STARTCHAR 0033
ENCODING 51
SWIDTH 765 0
DWIDTH 17 0
BBX 11 14 3 0
BITMAP
FF00
FF00
FF00
00E0
00E0
00E0
3F00
3F00
00E0
00E0
00E0
FF00
FF00
FF00
ENDCHAR
STARTCHAR 0034
ENCODING 52
SWIDTH 765 0
DWIDTH 17 0
BBX 11 14 3 0
BITMAP
E700
E700
E700
E700
E700
E700
FFE0
FFE0
FFE0
0700
0700
0700
0700
0700
ENDCHAR
STARTCHAR 0035
ENCODING 53
SWIDTH 765 0
DWIDTH 17 0
BBX 11 14 3 0
BITMAP
FFE0
FFE0
FFE0
E000
E000
E000
FF00
FF00
00E0
00E0
00E0
FF00
FF00
FF00
ENDCHAR
STARTCHAR 0036
ENCODING 54
SWIDTH 765 0
DWIDTH 17 0
BBX 11 14 3 0
BITMAP
3F00
3F00
3F00
E000
E000
E000
FF00
FF00
FFE0
E0E0
E0E0
3F00
3F00
3F00
ENDCHAR
STARTCHAR 0037
ENCODING 55
SWIDTH 765 0
DWIDTH 17 0
BBX 11 14 3 0
BITMAP
FFE0
FFE0
FFE0
00E0
00E0
00E0
0700
0700
3800
3800
3800
3800
3800
3800
ENDCHAR
STARTCHAR 0038
ENCODING 56
SWIDTH 765 0
DWIDTH 17 0
BBX 11 14 3 0
BITMAP
3F00
3F00
3F00
E0E0
E0E0
E0E0
3F00
3F00
FFE0
E0E0
E0E0
3F00
3F00
3F00
ENDCHAR
STARTCHAR 0039
ENCODING 57
SWIDTH 765 0
DWIDTH 17 0
BBX 11 14 3 0
BITMAP
3F00
3F00
3F00
E0E0
E0E0
FFE0
3FE0
3FE0
00E0
00E0
00E0
3F00
3F00
3F00
ENDCHAR
STARTCHAR 003A
ENCODING 58
SWIDTH 360 0
DWIDTH 8 0
BBX 3 8 3 3
BITMAP
E0
E0
E0
00
00
E0
E0
E0
ENDCHAR
STARTCHAR 003B
ENCODING 59
SWIDTH 495 0
DWIDTH 11 0
BBX 5 11 3 0
BITMAP
38
38
38
00
00
38
38
38
E0
E0
E0
ENDCHAR
STARTCHAR 003C
ENCODING 60
SWIDTH 630 0
DWIDTH 14 0
BBX 8 14 3 0
BITMAP
07
07
07
38
38
38
E0
E0
38
38
38
07
07
07
ENDCHAR
STARTCHAR 003D
ENCODING 61
SWIDTH 630 0
DWIDTH 14 0
BBX 8 8 3 3
BITMAP
FF
FF
FF
00
00
FF
FF
FF
ENDCHAR
STARTCHAR 003E
ENCODING 62
SWIDTH 630 0
DWIDTH 14 0
BBX 8 14 3 0
BITMAP
E0
E0
E0
38
38
38
07
07
38
38
38
E0
E0
E0
ENDCHAR
STARTCHAR 003F
ENCODING 63
SWIDTH 765 0
DWIDTH 17 0
BBX 11 14 3 0
BITMAP
FF00
FF00
FF00
00E0
00E0
00E0
3F00
3F00
3F00
0000
0000
3800
3800
3800
ENDCHAR
STARTCHAR 0040
ENCODING 64
SWIDTH 855 0
DWIDTH 19 0
BBX 14 14 3 0
BITMAP
3FE0
3FE0
3FE0
E71C
E71C
E71C
E7E0
E7E0
E7E0
E000
E000
3FE0
3FE0
3FE0
ENDCHAR
STARTCHAR 0041
ENCODING 65
SWIDTH 765 0
DWIDTH 17 0
BBX 11 14 3 0
BITMAP
3F00
3F00
3F00
E0E0
E0E0
E0E0
FFE0
FFE0
FFE0
E0E0
E0E0
E0E0
E0E0
E0E0
ENDCHAR
STARTCHAR 0042
ENCODING 66
SWIDTH 765 0
DWIDTH 17 0
BBX 11 14 3 0
BITMAP
FF00
FF00
FF00
E0E0
E0E0
E0E0
FFE0
FFE0
FFE0
E0E0
E0E0
FF00
FF00
FF00
ENDCHAR
STARTCHAR 0043
ENCODING 67
SWIDTH 765 0
DWIDTH 17 0
BBX 11 14 3 0
BITMAP
3F00
3F00
3F00
E0E0
E0E0
E0E0
E000
E000
E0E0
E0E0
E0E0
3F00
3F00
3F00
ENDCHAR
STARTCHAR 0044
ENCODING 68
SWIDTH 765 0
DWIDTH 17 0
BBX 11 14 3 0
BITMAP
FF00
FF00
FF00
E0E0
E0E0
E0E0
E0E0
E0E0
E0E0
E0E0
E0E0
FF00
FF00
FF00
ENDCHAR
STARTCHAR 0045
ENCODING 69
SWIDTH 630 0
DWIDTH 14 0
BBX 8 14 3 0
BITMAP
FF
FF
FF
E0
E0
E0
FF
FF
FF
E0
E0
FF
FF
FF
ENDCHAR
STARTCHAR 0046
ENCODING 70
SWIDTH 630 0
DWIDTH 14 0
BBX 8 14 3 0
BITMAP
FF
FF
FF
E0
E0
E0
FF
FF
FF
E0
E0
E0
E0
E0
ENDCHAR
STARTCHAR 0047
ENCODING 71
SWIDTH 765 0
DWIDTH 17 0
BBX 11 14 3 0
BITMAP
3FE0
3FE0
3FE0
E000
E000
E000
E7E0
E7E0
E7E0
E0E0
E0E0
3F00
3F00
3F00
ENDCHAR
STARTCHAR 0048
ENCODING 72
SWIDTH 765 0
DWIDTH 17 0
BBX 11 14 3 0
BITMAP
E0E0
E0E0
E0E0
E0E0
E0E0
E0E0
FFE0
FFE0
FFE0
E0E0
E0E0
E0E0
E0E0
E0E0
ENDCHAR
STARTCHAR 0049
ENCODING 73
SWIDTH 360 0
DWIDTH 8 0
BBX 3 14 3 0
BITMAP
E0
E0
E0
E0
E0
E0
E0
E0
E0
E0
E0
E0
E0
E0
ENDCHAR
STARTCHAR 004A
ENCODING 74
SWIDTH 765 0
DWIDTH 17 0
BBX 11 14 3 0
BITMAP
00E0
00E0
00E0
00E0
00E0
00E0
00E0
00E0
E0E0
E0E0
E0E0
3F00
3F00
3F00
ENDCHAR
STARTCHAR 004B
ENCODING 75
SWIDTH 765 0
DWIDTH 17 0
BBX 11 14 3 0
BITMAP
E0E0
E0E0
E0E0
E700
E700
E700
F800
F800
E700
E700
E700
E0E0
E0E0
E0E0
ENDCHAR
STARTCHAR 004C
ENCODING 76
SWIDTH 630 0
DWIDTH 14 0
BBX 8 14 3 0
BITMAP
E0
E0
E0
E0
E0
E0
E0
E0
E0
E0
E0
FF
FF
FF
ENDCHAR
STARTCHAR 004D
ENCODING 77
SWIDTH 855 0
DWIDTH 19 0
BBX 14 14 3 0
BITMAP
E01C
E01C
E01C
F8FC
F8FC
F8FC
E71C
E71C
E71C
E01C
E01C
E01C
E01C
E01C
ENDCHAR
STARTCHAR 004E
ENCODING 78
SWIDTH 855 0
DWIDTH 19 0
BBX 14 14 3 0
BITMAP
E01C
E01C
E01C
F81C
F81C
F81C
E71C
E71C
E0FC
E0FC
E0FC
E01C
E01C
E01C
ENDCHAR
STARTCHAR 004F
ENCODING 79
SWIDTH 765 0
DWIDTH 17 0
BBX 11 14 3 0
BITMAP
3F00
3F00
3F00
E0E0
E0E0
E0E0
E0E0
E0E0
E0E0
E0E0
E0E0
3F00
3F00
3F00
ENDCHAR
STARTCHAR 0050
ENCODING 80
SWIDTH 765 0
DWIDTH 17 0
BBX 11 14 3 0
BITMAP
FF00
FF00
FF00
E0E0
E0E0
E0E0
FF00
FF00
FF00
E000
E000
E000
E000
E000
ENDCHAR
STARTCHAR 0051
ENCODING 81
SWIDTH 765 0
DWIDTH 17 0
BBX 11 17 3 -3
BITMAP
3F00
3F00
3F00
E0E0
E0E0
E0E0
E0E0
E0E0
E0E0
E0E0
E0E0
3F00
3F00
3F00
00E0
00E0
00E0
ENDCHAR
STARTCHAR 0052
ENCODING 82
SWIDTH 765 0
DWIDTH 17 0
BBX 11 14 3 0
BITMAP
FF00
FF00
FF00
E0E0
E0E0
E0E0
FF00
FF00
FF00
E700
E700
E0E0
E0E0
E0E0
ENDCHAR
STARTCHAR 0053
ENCODING 83
SWIDTH 765 0
DWIDTH 17 0
BBX 11 14 3 0
BITMAP
3FE0
3FE0
3FE0
E000
E000
E000
3F00
3F00
00E0
00E0
00E0
FF00
FF00
FF00
ENDCHAR
STARTCHAR 0054
ENCODING 84
SWIDTH 630 0
DWIDTH 14 0
BBX 8 14 3 0
BITMAP
FF
FF
FF
38
38
38
38
38
38
38
38
38
38
38
ENDCHAR
STARTCHAR 0055
ENCODING 85
SWIDTH 765 0
DWIDTH 17 0
BBX 11 14 3 0
BITMAP
E0E0
E0E0
E0E0
E0E0
E0E0
E0E0
E0E0
E0E0
E0E0
E0E0
E0E0
3F00
3F00
3F00
ENDCHAR
STARTCHAR 0056
ENCODING 86
SWIDTH 855 0
DWIDTH 19 0
BBX 14 14 3 0
BITMAP
E01C
E01C
E01C
E01C
E01C
F8FC
38E0
38E0
38E0
38E0
38E0
0700
0700
0700
ENDCHAR
STARTCHAR 0057
ENCODING 87
SWIDTH 855 0
DWIDTH 19 0
BBX 14 14 3 0
BITMAP
E01C
E01C
E01C
E71C
E71C
E71C
E71C
E71C
E71C
E71C
E71C
38E0
38E0
38E0
ENDCHAR
STARTCHAR 0058
ENCODING 88
SWIDTH 855 0
DWIDTH 19 0
BBX 14 14 3 0
BITMAP
E01C
E01C
E01C
38E0
38E0
38E0
0700
0700
38E0
38E0
38E0
E01C
E01C
E01C
ENDCHAR
STARTCHAR 0059
ENCODING 89
SWIDTH 855 0
DWIDTH 19 0
BBX 14 14 3 0
BITMAP
E01C
E01C
E01C
38E0
38E0
38E0
0700
0700
0700
0700
0700
0700
0700
0700
ENDCHAR
STARTCHAR 005A
ENCODING 90
SWIDTH 630 0
DWIDTH 14 0
BBX 8 14 3 0
BITMAP
FF
FF
FF
07
07
07
38
38
E0
E0
E0
FF
FF
FF
ENDCHAR
STARTCHAR 005B
ENCODING 91
SWIDTH 495 0
DWIDTH 11 0
BBX 5 14 3 0
BITMAP
F8
F8
F8
E0
E0
E0
E0
E0
E0
E0
E0
F8
F8
F8
ENDCHAR
STARTCHAR 005C
ENCODING 92
SWIDTH 630 0
DWIDTH 14 0
BBX 8 14 3 0
BITMAP
E0
E0
E0
E0
E0
E0
38
38
07
07
07
07
07
07
ENDCHAR
STARTCHAR 005D
ENCODING 93
SWIDTH 495 0
DWIDTH 11 0
BBX 5 14 3 0
BITMAP
F8
F8
F8
38
38
38
38
38
38
38
38
F8
F8
F8
ENDCHAR
STARTCHAR 005E
ENCODING 94
SWIDTH 630 0
DWIDTH 14 0
BBX 8 6 3 11
BITMAP
38
38
38
E7
E7
E7
ENDCHAR
STARTCHAR 005F
ENCODING 95
SWIDTH 765 0
DWIDTH 17 0
BBX 11 3 3 -3
BITMAP
FFE0
FFE0
FFE0
ENDCHAR
STARTCHAR 0060
ENCODING 96
SWIDTH 495 0
DWIDTH 11 0
BBX 5 6 3 17
BITMAP
E0
E0
E0
38
38
38
ENDCHAR
STARTCHAR 0061
ENCODING 97
SWIDTH 765 0
DWIDTH 17 0
BBX 11 14 3 0
BITMAP
3F00
3F00
3F00
E0E0
E0E0
E0E0
FFE0
FFE0
FFE0
E0E0
E0E0
E0E0
E0E0
E0E0
ENDCHAR
STARTCHAR 0062
ENCODING 98
SWIDTH 765 0
DWIDTH 17 0
BBX 11 14 3 0
BITMAP
FF00
FF00
FF00
E0E0
E0E0
E0E0
FFE0
FFE0
FFE0
E0E0
E0E0
FF00
FF00
FF00
ENDCHAR
STARTCHAR 0063
ENCODING 99
SWIDTH 765 0
DWIDTH 17 0
BBX 11 14 3 0
BITMAP
3F00
3F00
3F00
E0E0
E0E0
E0E0
E000
E000
E0E0
E0E0
E0E0
3F00
3F00
3F00
ENDCHAR
STARTCHAR 0064
ENCODING 100
SWIDTH 765 0
DWIDTH 17 0
BBX 11 14 3 0
BITMAP
FF00
FF00
FF00
E0E0
E0E0
E0E0
E0E0
E0E0
E0E0
E0E0
E0E0
FF00
FF00
FF00
ENDCHAR
STARTCHAR 0065
ENCODING 101
SWIDTH 630 0
DWIDTH 14 0
BBX 8 14 3 0
BITMAP
FF
FF
FF
E0
E0
E0
FF
FF
FF
E0
E0
FF
FF
FF
ENDCHAR
STARTCHAR 0066
ENCODING 102
SWIDTH 630 0
DWIDTH 14 0
BBX 8 14 3 0
BITMAP
FF
FF
FF
E0
E0
E0
FF
FF
FF
E0
E0
E0
E0
E0
ENDCHAR
STARTCHAR 0067
ENCODING 103
SWIDTH 765 0
DWIDTH 17 0
BBX 11 14 3 0
BITMAP
3FE0
3FE0
3FE0
E000
E000
E000
E7E0
E7E0
E7E0
E0E0
E0E0
3F00
3F00
3F00
ENDCHAR
STARTCHAR 0068
ENCODING 104
SWIDTH 765 0
DWIDTH 17 0
BBX 11 14 3 0
BITMAP
E0E0
E0E0
E0E0
E0E0
E0E0
E0E0
FFE0
FFE0
FFE0
E0E0
E0E0
E0E0
E0E0
E0E0
ENDCHAR
STARTCHAR 0069
ENCODING 105
SWIDTH 360 0
DWIDTH 8 0
BBX 3 14 3 0
BITMAP
E0
E0
E0
E0
E0
E0
E0
E0
E0
E0
E0
E0
E0
E0
ENDCHAR
STARTCHAR 006A
ENCODING 106
SWIDTH 765 0
DWIDTH 17 0
BBX 11 14 3 0
BITMAP
00E0
00E0
00E0
00E0
00E0
00E0
00E0
00E0
E0E0
E0E0
E0E0
3F00
3F00
3F00
ENDCHAR
STARTCHAR 006B
ENCODING 107
SWIDTH 765 0
DWIDTH 17 0
BBX 11 14 3 0
BITMAP
E0E0
E0E0
E0E0
E700
E700
E700
F800
F800
E700
E700
E700
E0E0
E0E0
E0E0
ENDCHAR
STARTCHAR 006C
ENCODING 108
SWIDTH 630 0
DWIDTH 14 0
BBX 8 14 3 0
BITMAP
E0
E0
E0
E0
E0
E0
E0
E0
E0
E0
E0
FF
FF
FF
ENDCHAR
STARTCHAR 006D
ENCODING 109
SWIDTH 855 0
DWIDTH 19 0
BBX 14 14 3 0
BITMAP
E01C
E01C
E01C
F8FC
F8FC
F8FC
E71C
E71C
E71C
E01C
E01C
E01C
E01C
E01C
ENDCHAR
STARTCHAR 006E
ENCODING 110
SWIDTH 855 0
DWIDTH 19 0
BBX 14 14 3 0
BITMAP
E01C
E01C
E01C
F81C
F81C
F81C
E71C
E71C
E0FC
E0FC
E0FC
E01C
E01C
E01C
ENDCHAR
STARTCHAR 006F
ENCODING 111
SWIDTH 765 0
DWIDTH 17 0
BBX 11 14 3 0
BITMAP
3F00
3F00
3F00
E0E0
E0E0
E0E0
E0E0
E0E0
E0E0
E0E0
E0E0
3F00
3F00
3F00
ENDCHAR
STARTCHAR 0070
ENCODING 112
SWIDTH 765 0
DWIDTH 17 0
BBX 11 14 3 0
BITMAP
FF00
FF00
FF00
E0E0
E0E0
E0E0
FF00
FF00
FF00
E000
E000
E000
E000
E000
ENDCHAR
STARTCHAR 0071
ENCODING 113
SWIDTH 765 0
DWIDTH 17 0
BBX 11 17 3 -3
BITMAP
3F00
3F00
3F00
E0E0
E0E0
E0E0
E0E0
E0E0
E0E0
E0E0
E0E0
3F00
3F00
3F00
00E0
00E0
00E0
ENDCHAR
STARTCHAR 0072
ENCODING 114
SWIDTH 765 0
DWIDTH 17 0
BBX 11 14 3 0
BITMAP
FF00
FF00
FF00
E0E0
E0E0
E0E0
FF00
FF00
FF00
E700
E700
E0E0
E0E0
E0E0
ENDCHAR
STARTCHAR 0073
ENCODING 115
SWIDTH 765 0
DWIDTH 17 0
BBX 11 14 3 0
BITMAP
3FE0
3FE0
3FE0
E000
E000
E000
3F00
3F00
00E0
00E0
00E0
FF00
FF00
FF00
ENDCHAR
STARTCHAR 0074
ENCODING 116
SWIDTH 630 0
DWIDTH 14 0
BBX 8 14 3 0
BITMAP
FF
FF
FF
38
38
38
38
38
38
38
38
38
38
38
ENDCHAR
STARTCHAR 0075
ENCODING 117
SWIDTH 765 0
DWIDTH 17 0
BBX 11 14 3 0
BITMAP
E0E0
E0E0
E0E0
E0E0
E0E0
E0E0
E0E0
E0E0
E0E0
E0E0
E0E0
3F00
3F00
3F00
ENDCHAR
STARTCHAR 0076
ENCODING 118
SWIDTH 855 0
DWIDTH 19 0
BBX 14 14 3 0
BITMAP
E01C
E01C
E01C
E01C
E01C
F8FC
38E0
38E0
38E0
38E0
38E0
0700
0700
0700
ENDCHAR
STARTCHAR 0077
ENCODING 119
SWIDTH 855 0
DWIDTH 19 0
BBX 14 14 3 0
BITMAP
E01C
E01C
E01C
E71C
E71C
E71C
E71C
E71C
E71C
E71C
E71C
38E0
38E0
38E0
ENDCHAR
STARTCHAR 0078
ENCODING 120
SWIDTH 855 0
DWIDTH 19 0
BBX 14 14 3 0
BITMAP
E01C
E01C
E01C
38E0
38E0
38E0
0700
0700
38E0
38E0
38E0
E01C
E01C
E01C
ENDCHAR
STARTCHAR 0079
ENCODING 121
SWIDTH 855 0
DWIDTH 19 0
BBX 14 14 3 0
BITMAP
E01C
E01C
E01C
38E0
38E0
38E0
0700
0700
0700
0700
0700
0700
0700
0700
ENDCHAR
STARTCHAR 007A
ENCODING 122
SWIDTH 630 0
DWIDTH 14 0
BBX 8 14 3 0
BITMAP
FF
FF
FF
07
07
07
38
38
E0
E0
E0
FF
FF
FF
ENDCHAR
STARTCHAR 007B
ENCODING 123
SWIDTH 630 0
DWIDTH 14 0
BBX 8 14 3 0
BITMAP
3F
3F
3F
38
38
38
E0
E0
38
38
38
3F
3F
3F
ENDCHAR
STARTCHAR 007C
ENCODING 124
SWIDTH 360 0
DWIDTH 8 0
BBX 3 20 3 -3
BITMAP
E0
E0
E0
E0
E0
E0
E0
E0
E0
E0
E0
E0
E0
E0
E0
E0
E0
E0
E0
E0
ENDCHAR
STARTCHAR 007D
ENCODING 125
SWIDTH 630 0
DWIDTH 14 0
BBX 8 14 3 0
BITMAP
F8
F8
F8
38
38
38
07
07
38
38
38
F8
F8
F8
ENDCHAR
STARTCHAR 007E
ENCODING 126
SWIDTH 765 0
DWIDTH 17 0
BBX 11 6 3 8
BITMAP
38E0
38E0
38E0
E700
E700
E700
ENDCHAR
STARTCHAR 00A0
ENCODING 160
SWIDTH 495 0
DWIDTH 11 0
BBX 0 0 0 0
BITMAP
ENDCHAR
STARTCHAR 00A1
ENCODING 161
SWIDTH 360 0
DWIDTH 8 0
BBX 3 14 3 0
BITMAP
E0
E0
E0
00
00
00
E0
E0
E0
E0
E0
E0
E0
E0
ENDCHAR
STARTCHAR 00A2
ENCODING 162
SWIDTH 630 0
DWIDTH 14 0
BBX 8 14 3 0
BITMAP
38
38
38
FF
FF
FF
E0
E0
FF
FF
FF
38
38
38
ENDCHAR
STARTCHAR 00A3
ENCODING 163
SWIDTH 765 0
DWIDTH 17 0
BBX 11 14 3 0
BITMAP
07E0
07E0
07E0
0700
0700
0700
FF00
FF00
FF00
3800
3800
FFE0
FFE0
FFE0
ENDCHAR
STARTCHAR 00A4
ENCODING 164
SWIDTH 855 0
DWIDTH 19 0
BBX 14 14 3 0
BITMAP
E71C
E71C
E71C
38E0
38E0
38E0
38E0
38E0
38E0
38E0
38E0
E71C
E71C
E71C
ENDCHAR
STARTCHAR 00A5
ENCODING 165
SWIDTH 855 0
DWIDTH 19 0
BBX 14 14 3 0
BITMAP
E01C
E01C
E01C
3FE0
3FE0
3FE0
0700
0700
3FE0
3FE0
3FE0
0700
0700
0700
ENDCHAR
STARTCHAR 00A6
ENCODING 166
SWIDTH 360 0
DWIDTH 8 0
BBX 3 14 3 0
BITMAP
E0
E0
E0
E0
E0
E0
00
00
E0
E0
E0
E0
E0
E0
ENDCHAR
STARTCHAR 00A7
ENCODING 167
SWIDTH 765 0
DWIDTH 17 0
BBX 11 20 3 -3
BITMAP
3F00
3F00
3F00
E000
E000
E000
3F00
3F00
3F00
E0E0
E0E0
3F00
3F00
3F00
00E0
00E0
00E0
3F00
3F00
3F00
ENDCHAR
STARTCHAR 00A8
ENCODING 168
SWIDTH 630 0
DWIDTH 14 0
BBX 8 3 3 20
BITMAP
E7
E7
E7
ENDCHAR
STARTCHAR 00A9
ENCODING 169
SWIDTH 1125 0
DWIDTH 25 0
BBX 19 20 3 -3
BITMAP
3FFF00
3FFF00
3FFF00
E000E0
E000E0
E000E0
E7FCE0
E7FCE0
E7FCE0
E700E0
E700E0
E700E0
E7FCE0
E7FCE0
E7FCE0
E000E0
E000E0
3FFF00
3FFF00
3FFF00
ENDCHAR
STARTCHAR 00AA
ENCODING 170
SWIDTH 630 0
DWIDTH 14 0
BBX 8 8 3 6
BITMAP
38
38
38
E7
E7
3F
3F
3F
ENDCHAR
STARTCHAR 00AB
ENCODING 171
SWIDTH 855 0
DWIDTH 19 0
BBX 14 8 3 3
BITMAP
381C
381C
E0E0
E0E0
E0E0
381C
381C
381C
ENDCHAR
STARTCHAR 00AC
ENCODING 172
SWIDTH 765 0
DWIDTH 17 0
BBX 11 6 3 3
BITMAP
FFE0
FFE0
FFE0
00E0
00E0
00E0
ENDCHAR
STARTCHAR 00AD
ENCODING 173
SWIDTH 0 0
DWIDTH 0 0
BBX 8 3 -4 6
BITMAP
FF
FF
FF
ENDCHAR
STARTCHAR 00AE
ENCODING 174
SWIDTH 1125 0
DWIDTH 25 0
BBX 19 20 3 -3
BITMAP
3FFF00
3FFF00
3FFF00
E000E0
E000E0
E000E0
E0FCE0
E0FCE0
E0FCE0
E700E0
E700E0
E700E0
E700E0
E700E0
E700E0
E000E0
E000E0
3FFF00
3FFF00
3FFF00
ENDCHAR
STARTCHAR 00AF
ENCODING 175
SWIDTH 765 0
DWIDTH 17 0
BBX 11 3 3 11
BITMAP
FFE0
FFE0
FFE0
ENDCHAR
STARTCHAR 00B0
ENCODING 176
SWIDTH 630 0
DWIDTH 14 0
BBX 8 8 3 6
BITMAP
38
38
FF
E7
E7
38
38
38
ENDCHAR
STARTCHAR 00B1
ENCODING 177
SWIDTH 855 0
DWIDTH 19 0
BBX 14 17 3 -3
BITMAP
0700
0700
0700
0700
0700
0700
FFFC
FFFC
FFFC
0700
0700
0700
0700
0700
FFFC
FFFC
FFFC
ENDCHAR
STARTCHAR 00B2
ENCODING 178
SWIDTH 630 0
DWIDTH 14 0
BBX 8 11 3 3
BITMAP
F8
F8
F8
07
07
07
38
38
FF
FF
FF
ENDCHAR
STARTCHAR 00B3
ENCODING 179
SWIDTH 630 0
DWIDTH 14 0
BBX 8 11 3 3
BITMAP
F8
F8
F8
3F
3F
3F
07
07
FF
FF
FF
ENDCHAR
STARTCHAR 00B4
ENCODING 180
SWIDTH 495 0
DWIDTH 11 0
BBX 5 6 3 17
BITMAP
38
38
38
E0
E0
E0
ENDCHAR
STARTCHAR 00B5
ENCODING 181
SWIDTH 765 0
DWIDTH 17 0
BBX 11 17 3 -3
BITMAP
E0E0
E0E0
E0E0
E0E0
E0E0
E0E0
E0E0
E0E0
E0E0
E0E0
E0E0
FF00
FF00
FF00
E000
E000
E000
ENDCHAR
STARTCHAR 00B6
ENCODING 182
SWIDTH 855 0
DWIDTH 19 0
BBX 14 14 3 0
BITMAP
3FFC
3FFC
3FFC
E71C
E71C
E71C
3FFC
3FFC
3FFC
071C
071C
071C
071C
071C
ENDCHAR
STARTCHAR 00B7
ENCODING 183
SWIDTH 360 0
DWIDTH 8 0
BBX 3 3 3 6
BITMAP
E0
E0
E0
ENDCHAR
STARTCHAR 00B8
ENCODING 184
SWIDTH 495 0
DWIDTH 11 0
BBX 5 6 3 -6
BITMAP
18
18
18
E0
E0
E0
ENDCHAR
STARTCHAR 00B9
ENCODING 185
SWIDTH 495 0
DWIDTH 11 0
BBX 5 11 3 3
BITMAP
F8
F8
F8
38
38
38
38
38
38
38
38
ENDCHAR
STARTCHAR 00BA
ENCODING 186
SWIDTH 630 0
DWIDTH 14 0
BBX 8 8 3 6
BITMAP
38
38
38
E7
E7
FF
38
38
ENDCHAR
STARTCHAR 00BB
ENCODING 187
SWIDTH 855 0
DWIDTH 19 0
BBX 14 8 3 3
BITMAP
E0E0
E0E0
381C
381C
381C
E0E0
E0E0
E0E0
ENDCHAR
STARTCHAR 00BC
ENCODING 188
SWIDTH 1125 0
DWIDTH 25 0
BBX 19 14 3 0
BITMAP
E0E000
E0E000
E0E000
E0E000
E0E000
E0E000
E71CE0
E71CE0
381FE0
381FE0
381FE0
3800E0
3800E0
3800E0
ENDCHAR
STARTCHAR 00BD
ENCODING 189
SWIDTH 1125 0
DWIDTH 25 0
BBX 19 14 3 0
BITMAP
E0E000
E0E000
E0E000
E0FF00
E0FF00
E0FF00
E700E0
E700E0
380700
380700
380700
381FE0
381FE0
381FE0
ENDCHAR
STARTCHAR 00BE
ENCODING 190
SWIDTH 1260 0
DWIDTH 28 0
BBX 22 14 3 0
BITMAP
F81C00
F81C00
F81C00
3F1C00
3F1C00
3F1C00
07E71C
07E71C
FF07FC
FF07FC
FF07FC
07001C
07001C
07001C
ENDCHAR
STARTCHAR 00BF
ENCODING 191
SWIDTH 765 0
DWIDTH 17 0
BBX 11 14 3 0
BITMAP
0700
0700
0700
0000
0000
0000
3F00
3F00
E000
E000
E000
3FE0
3FE0
3FE0
ENDCHAR
STARTCHAR 00C0
ENCODING 192
SWIDTH 765 0
DWIDTH 17 0
BBX 11 23 3 0
BITMAP
3800
3800
3800
0700
0700
0700
0000
0000
0000
3F00
3F00
3F00
E0E0
E0E0
E0E0
FFE0
FFE0
FFE0
E0E0
E0E0
E0E0
E0E0
E0E0
ENDCHAR
STARTCHAR 00C1
ENCODING 193
SWIDTH 765 0
DWIDTH 17 0
BBX 11 23 3 0
BITMAP
0700
0700
0700
3800
3800
3800
0000
0000
0000
3F00
3F00
3F00
E0E0
E0E0
E0E0
FFE0
FFE0
FFE0
E0E0
E0E0
E0E0
E0E0
E0E0
ENDCHAR
STARTCHAR 00C2
ENCODING 194
SWIDTH 765 0
DWIDTH 17 0
BBX 11 22 3 0
BITMAP
3F00
3F00
E0E0
E0E0
E0E0
0000
0000
0000
3F00
3F00
3F00
E0E0
E0E0
E0E0
FFE0
FFE0
FFE0
E0E0
E0E0
E0E0
E0E0
E0E0
ENDCHAR
STARTCHAR 00C3
ENCODING 195
SWIDTH 765 0
DWIDTH 17 0
BBX 11 23 3 0
BITMAP
38E0
38E0
38E0
E700
E700
E700
0000
0000
0000
3F00
3F00
3F00
E0E0
E0E0
E0E0
FFE0
FFE0
FFE0
E0E0
E0E0
E0E0
E0E0
E0E0
ENDCHAR
STARTCHAR 00C4
ENCODING 196
SWIDTH 765 0
DWIDTH 17 0
BBX 11 20 3 0
BITMAP
E0E0
E0E0
E0E0
0000
0000
0000
3F00
3F00
3F00
E0E0
E0E0
E0E0
FFE0
FFE0
FFE0
E0E0
E0E0
E0E0
E0E0
E0E0
ENDCHAR
STARTCHAR 00C5
ENCODING 197
SWIDTH 765 0
DWIDTH 17 0
BBX 11 22 3 0
BITMAP
E0E0
E0E0
3F00
3F00
3F00
0000
0000
0000
3F00
3F00
3F00
E0E0
E0E0
E0E0
FFE0
FFE0
FFE0
E0E0
E0E0
E0E0
E0E0
E0E0
ENDCHAR
STARTCHAR 00C6
ENCODING 198
SWIDTH 855 0
DWIDTH 19 0
BBX 14 14 3 0
BITMAP
3FFC
3FFC
3FFC
E700
E700
E700
FFFC
FFFC
FFFC
E700
E700
E7FC
E7FC
E7FC
ENDCHAR
STARTCHAR 00C7
ENCODING 199
SWIDTH 765 0
DWIDTH 17 0
BBX 11 20 3 -6
BITMAP
3F00
3F00
3F00
E0E0
E0E0
E0E0
E000
E000
E0E0
E0E0
E0E0
3F00
3F00
3F00
3800
3800
3800
E000
E000
E000
ENDCHAR
STARTCHAR 00C8
ENCODING 200
SWIDTH 630 0
DWIDTH 14 0
BBX 8 23 3 0
BITMAP
E0
E0
E0
38
38
38
00
00
00
FF
FF
FF
E0
E0
E0
FF
FF
FF
E0
E0
FF
FF
FF
ENDCHAR
STARTCHAR 00C9
ENCODING 201
SWIDTH 630 0
DWIDTH 14 0
BBX 8 23 3 0
BITMAP
07
07
07
38
38
38
00
00
00
FF
FF
FF
E0
E0
E0
FF
FF
FF
E0
E0
FF
FF
FF
ENDCHAR
STARTCHAR 00CA
ENCODING 202
SWIDTH 630 0
DWIDTH 14 0
BBX 8 23 3 0
BITMAP
38
38
38
E7
E7
E7
00
00
00
FF
FF
FF
E0
E0
E0
FF
FF
FF
E0
E0
FF
FF
FF
ENDCHAR
STARTCHAR 00CB
ENCODING 203
SWIDTH 630 0
DWIDTH 14 0
BBX 8 20 3 0
BITMAP
E7
E7
E7
00
00
00
FF
FF
FF
E0
E0
E0
FF
FF
FF
E0
E0
FF
FF
FF
ENDCHAR
STARTCHAR 00CC
ENCODING 204
SWIDTH 360 0
DWIDTH 8 0
BBX 6 23 0 0
BITMAP
E0
E0
E0
1C
1C
1C
00
00
00
1C
1C
1C
1C
1C
1C
1C
1C
1C
1C
1C
1C
1C
1C
ENDCHAR
STARTCHAR 00CD
ENCODING 205
SWIDTH 360 0
DWIDTH 8 0
BBX 5 23 3 0
BITMAP
38
38
38
E0
E0
E0
00
00
00
E0
E0
E0
E0
E0
E0
E0
E0
E0
E0
E0
E0
E0
E0
ENDCHAR
STARTCHAR 00CE
ENCODING 206
SWIDTH 360 0
DWIDTH 8 0
BBX 8 23 0 0
BITMAP
1C
1C
1C
E7
E7
E7
00
00
00
1C
1C
1C
1C
1C
1C
1C
1C
1C
1C
1C
1C
1C
1C
ENDCHAR
STARTCHAR 00CF
ENCODING 207
SWIDTH 360 0
DWIDTH 8 0
BBX 8 20 0 0
BITMAP
E7
E7
E7
00
00
00
1C
1C
1C
1C
1C
1C
1C
1C
1C
1C
1C
1C
1C
1C
ENDCHAR
STARTCHAR 00D0
ENCODING 208
SWIDTH 855 0
DWIDTH 19 0
BBX 14 14 3 0
BITMAP
3FE0
3FE0
3FE0
381C
381C
381C
FF1C
FF1C
FF1C
381C
381C
3FE0
3FE0
3FE0
ENDCHAR
STARTCHAR 00D1
ENCODING 209
SWIDTH 855 0
DWIDTH 19 0
BBX 14 23 3 0
BITMAP
071C
071C
071C
38E0
38E0
38E0
0000
0000
0000
E01C
E01C
E01C
F81C
F81C
F81C
E71C
E71C
E0FC
E0FC
E0FC
E01C
E01C
E01C
ENDCHAR
STARTCHAR 00D2
ENCODING 210
SWIDTH 765 0
DWIDTH 17 0
BBX 11 23 3 0
BITMAP
3800
3800
3800
0700
0700
0700
0000
0000
0000
3F00
3F00
3F00
E0E0
E0E0
E0E0
E0E0
E0E0
E0E0
E0E0
E0E0
3F00
3F00
3F00
ENDCHAR
STARTCHAR 00D3
ENCODING 211
SWIDTH 765 0
DWIDTH 17 0
BBX 11 23 3 0
BITMAP
0700
0700
0700
3800
3800
3800
0000
0000
0000
3F00
3F00
3F00
E0E0
E0E0
E0E0
E0E0
E0E0
E0E0
E0E0
E0E0
3F00
3F00
3F00
ENDCHAR
STARTCHAR 00D4
ENCODING 212
SWIDTH 765 0
DWIDTH 17 0
BBX 11 23 3 0
BITMAP
0E00
0E00
0E00
7180
7180
7180
0000
0000
0000
3F00
3F00
3F00
E0E0
E0E0
E0E0
E0E0
E0E0
E0E0
E0E0
E0E0
3F00
3F00
3F00
ENDCHAR
STARTCHAR 00D5
ENCODING 213
SWIDTH 765 0
DWIDTH 17 0
BBX 11 23 3 0
BITMAP
38E0
38E0
38E0
E700
E700
E700
0000
0000
0000
3F00
3F00
3F00
E0E0
E0E0
E0E0
E0E0
E0E0
E0E0
E0E0
E0E0
3F00
3F00
3F00
ENDCHAR
STARTCHAR 00D6
ENCODING 214
SWIDTH 765 0
DWIDTH 17 0
BBX 11 20 3 0
BITMAP
7180
7180
7180
0000
0000
0000
3F00
3F00
3F00
E0E0
E0E0
E0E0
E0E0
E0E0
E0E0
E0E0
E0E0
3F00
3F00
3F00
ENDCHAR
STARTCHAR 00D7
ENCODING 215
SWIDTH 630 0
DWIDTH 14 0
BBX 8 8 3 3
BITMAP
E7
E7
38
38
38
E7
E7
E7
ENDCHAR
STARTCHAR 00D8
ENCODING 216
SWIDTH 855 0
DWIDTH 19 0
BBX 14 14 3 0
BITMAP
3FE0
3FE0
3FE0
E0FC
E0FC
E0FC
E71C
E71C
F81C
F81C
F81C
3FE0
3FE0
3FE0
ENDCHAR
STARTCHAR 00D9
ENCODING 217
SWIDTH 765 0
DWIDTH 17 0
BBX 11 23 3 0
BITMAP
3800
3800
3800
0700
0700
0700
0000
0000
0000
E0E0
E0E0
E0E0
E0E0
E0E0
E0E0
E0E0
E0E0
E0E0
E0E0
E0E0
3F00
3F00
3F00
ENDCHAR
STARTCHAR 00DA
ENCODING 218
SWIDTH 765 0
DWIDTH 17 0
BBX 11 23 3 0
BITMAP
0700
0700
0700
3800
3800
3800
0000
0000
0000
E0E0
E0E0
E0E0
E0E0
E0E0
E0E0
E0E0
E0E0
E0E0
E0E0
E0E0
3F00
3F00
3F00
ENDCHAR
STARTCHAR 00DB
ENCODING 219
SWIDTH 765 0
DWIDTH 17 0
BBX 11 23 3 0
BITMAP
0E00
0E00
0E00
7180
7180
7180
0000
0000
0000
E0E0
E0E0
E0E0
E0E0
E0E0
E0E0
E0E0
E0E0
E0E0
E0E0
E0E0
3F00
3F00
3F00
ENDCHAR
STARTCHAR 00DC
ENCODING 220
SWIDTH 765 0
DWIDTH 17 0
BBX 11 20 3 0
BITMAP
7180
7180
7180
0000
0000
0000
E0E0
E0E0
E0E0
E0E0
E0E0
E0E0
E0E0
E0E0
E0E0
E0E0
E0E0
3F00
3F00
3F00
ENDCHAR
STARTCHAR 00DD
ENCODING 221
SWIDTH 855 0
DWIDTH 19 0
BBX 14 23 3 0
BITMAP
0180
0180
0180
0E00
0E00
0E00
0000
0000
0000
E01C
E01C
E01C
38E0
38E0
38E0
0700
0700
0700
0700
0700
0700
0700
0700
ENDCHAR
STARTCHAR 00DE
ENCODING 222
SWIDTH 630 0
DWIDTH 14 0
BBX 8 14 3 0
BITMAP
E0
E0
E0
F8
F8
F8
E7
E7
F8
F8
F8
E0
E0
E0
ENDCHAR
STARTCHAR 00DF
ENCODING 223
SWIDTH 765 0
DWIDTH 17 0
BBX 11 14 3 0
BITMAP
3F00
3F00
3F00
E0E0
E0E0
E0E0
E700
E700
E0E0
E0E0
E0E0
E700
E700
E700
ENDCHAR
STARTCHAR 00E0
ENCODING 224
SWIDTH 765 0
DWIDTH 17 0
BBX 11 23 3 0
BITMAP
3800
3800
3800
0700
0700
0700
0000
0000
0000
3F00
3F00
3F00
E0E0
E0E0
E0E0
FFE0
FFE0
FFE0
E0E0
E0E0
E0E0
E0E0
E0E0
ENDCHAR
STARTCHAR 00E1
ENCODING 225
SWIDTH 765 0
DWIDTH 17 0
BBX 11 23 3 0
BITMAP
0700
0700
0700
3800
3800
3800
0000
0000
0000
3F00
3F00
3F00
E0E0
E0E0
E0E0
FFE0
FFE0
FFE0
E0E0
E0E0
E0E0
E0E0
E0E0
ENDCHAR
STARTCHAR 00E2
ENCODING 226
SWIDTH 765 0
DWIDTH 17 0
BBX 11 22 3 0
BITMAP
3F00
3F00
E0E0
E0E0
E0E0
0000
0000
0000
3F00
3F00
3F00
E0E0
E0E0
E0E0
FFE0
FFE0
FFE0
E0E0
E0E0
E0E0
E0E0
E0E0
ENDCHAR
STARTCHAR 00E3
ENCODING 227
SWIDTH 765 0
DWIDTH 17 0
BBX 11 23 3 0
BITMAP
38E0
38E0
38E0
E700
E700
E700
0000
0000
0000
3F00
3F00
3F00
E0E0
E0E0
E0E0
FFE0
FFE0
FFE0
E0E0
E0E0
E0E0
E0E0
E0E0
ENDCHAR
STARTCHAR 00E4
ENCODING 228
SWIDTH 765 0
DWIDTH 17 0
BBX 11 20 3 0
BITMAP
E0E0
E0E0
E0E0
0000
0000
0000
3F00
3F00
3F00
E0E0
E0E0
E0E0
FFE0
FFE0
FFE0
E0E0
E0E0
E0E0
E0E0
E0E0
ENDCHAR
STARTCHAR 00E5
ENCODING 229
SWIDTH 765 0
DWIDTH 17 0
BBX 11 22 3 0
BITMAP
E0E0
E0E0
3F00
3F00
3F00
0000
0000
0000
3F00
3F00
3F00
E0E0
E0E0
E0E0
FFE0
FFE0
FFE0
E0E0
E0E0
E0E0
E0E0
E0E0
ENDCHAR
STARTCHAR 00E6
ENCODING 230
SWIDTH 855 0
DWIDTH 19 0
BBX 14 14 3 0
BITMAP
3FFC
3FFC
3FFC
E700
E700
E700
FFFC
FFFC
FFFC
E700
E700
E7FC
E7FC
E7FC
ENDCHAR
STARTCHAR 00E7
ENCODING 231
SWIDTH 765 0
DWIDTH 17 0
BBX 11 20 3 -6
BITMAP
3F00
3F00
3F00
E0E0
E0E0
E0E0
E000
E000
E0E0
E0E0
E0E0
3F00
3F00
3F00
3800
3800
3800
E000
E000
E000
ENDCHAR
STARTCHAR 00E8
ENCODING 232
SWIDTH 630 0
DWIDTH 14 0
BBX 8 23 3 0
BITMAP
E0
E0
E0
38
38
38
00
00
00
FF
FF
FF
E0
E0
E0
FF
FF
FF
E0
E0
FF
FF
FF
ENDCHAR
STARTCHAR 00E9
ENCODING 233
SWIDTH 630 0
DWIDTH 14 0
BBX 8 23 3 0
BITMAP
07
07
07
38
38
38
00
00
00
FF
FF
FF
E0
E0
E0
FF
FF
FF
E0
E0
FF
FF
FF
ENDCHAR
STARTCHAR 00EA
ENCODING 234
SWIDTH 630 0
DWIDTH 14 0
BBX 8 23 3 0
BITMAP
38
38
38
E7
E7
E7
00
00
00
FF
FF
FF
E0
E0
E0
FF
FF
FF
E0
E0
FF
FF
FF
ENDCHAR
STARTCHAR 00EB
ENCODING 235
SWIDTH 630 0
DWIDTH 14 0
BBX 8 20 3 0
BITMAP
E7
E7
E7
00
00
00
FF
FF
FF
E0
E0
E0
FF
FF
FF
E0
E0
FF
FF
FF
ENDCHAR
STARTCHAR 00EC
ENCODING 236
SWIDTH 360 0
DWIDTH 8 0
BBX 6 22 0 0
BITMAP
E0
E0
1C
1C
1C
00
00
00
1C
1C
1C
1C
1C
1C
1C
1C
1C
1C
1C
1C
1C
1C
ENDCHAR
STARTCHAR 00ED
ENCODING 237
SWIDTH 360 0
DWIDTH 8 0
BBX 5 22 3 0
BITMAP
38
38
E0
E0
E0
00
00
00
E0
E0
E0
E0
E0
E0
E0
E0
E0
E0
E0
E0
E0
E0
ENDCHAR
STARTCHAR 00EE
ENCODING 238
SWIDTH 360 0
DWIDTH 8 0
BBX 8 22 0 0
BITMAP
1C
1C
E7
E7
E7
00
00
00
1C
1C
1C
1C
1C
1C
1C
1C
1C
1C
1C
1C
1C
1C
ENDCHAR
STARTCHAR 00EF
ENCODING 239
SWIDTH 360 0
DWIDTH 8 0
BBX 8 20 0 0
BITMAP
E7
E7
E7
00
00
00
1C
1C
1C
1C
1C
1C
1C
1C
1C
1C
1C
1C
1C
1C
ENDCHAR
STARTCHAR 00F0
ENCODING 240
SWIDTH 855 0
DWIDTH 19 0
BBX 14 14 3 0
BITMAP
3FE0
3FE0
3FE0
381C
381C
381C
FF1C
FF1C
FF1C
381C
381C
3FE0
3FE0
3FE0
ENDCHAR
STARTCHAR 00F1
ENCODING 241
SWIDTH 855 0
DWIDTH 19 0
BBX 14 23 3 0
BITMAP
071C
071C
071C
38E0
38E0
38E0
0000
0000
0000
E01C
E01C
E01C
F81C
F81C
F81C
E71C
E71C
E0FC
E0FC
E0FC
E01C
E01C
E01C
ENDCHAR
STARTCHAR 00F2
ENCODING 242
SWIDTH 765 0
DWIDTH 17 0
BBX 11 23 3 0
BITMAP
3800
3800
3800
0700
0700
0700
0000
0000
0000
3F00
3F00
3F00
E0E0
E0E0
E0E0
E0E0
E0E0
E0E0
E0E0
E0E0
3F00
3F00
3F00
ENDCHAR
STARTCHAR 00F3
ENCODING 243
SWIDTH 765 0
DWIDTH 17 0
BBX 11 23 3 0
BITMAP
0700
0700
0700
3800
3800
3800
0000
0000
0000
3F00
3F00
3F00
E0E0
E0E0
E0E0
E0E0
E0E0
E0E0
E0E0
E0E0
3F00
3F00
3F00
ENDCHAR
STARTCHAR 00F4
ENCODING 244
SWIDTH 765 0
DWIDTH 17 0
BBX 11 22 3 0
BITMAP
3F00
3F00
E0E0
E0E0
E0E0
0000
0000
0000
3F00
3F00
3F00
E0E0
E0E0
E0E0
E0E0
E0E0
E0E0
E0E0
E0E0
3F00
3F00
3F00
ENDCHAR
STARTCHAR 00F5
ENCODING 245
SWIDTH 765 0
DWIDTH 17 0
BBX 11 23 3 0
BITMAP
38E0
38E0
38E0
E700
E700
E700
0000
0000
0000
3F00
3F00
3F00
E0E0
E0E0
E0E0
E0E0
E0E0
E0E0
E0E0
E0E0
3F00
3F00
3F00
ENDCHAR
STARTCHAR 00F6
ENCODING 246
SWIDTH 765 0
DWIDTH 17 0
BBX 11 20 3 0
BITMAP
E0E0
E0E0
E0E0
0000
0000
0000
3F00
3F00
3F00
E0E0
E0E0
E0E0
E0E0
E0E0
E0E0
E0E0
E0E0
3F00
3F00
3F00
ENDCHAR
STARTCHAR 00F7
ENCODING 247
SWIDTH 630 0
DWIDTH 14 0
BBX 8 14 3 0
BITMAP
38
38
38
00
00
00
FF
FF
FF
00
00
38
38
38
ENDCHAR
STARTCHAR 00F8
ENCODING 248
SWIDTH 855 0
DWIDTH 19 0
BBX 14 14 3 0
BITMAP
3FE0
3FE0
3FE0
E0FC
E0FC
E0FC
E71C
E71C
F81C
F81C
F81C
3FE0
3FE0
3FE0
ENDCHAR
STARTCHAR 00F9
ENCODING 249
SWIDTH 765 0
DWIDTH 17 0
BBX 11 23 3 0
BITMAP
3800
3800
3800
0700
0700
0700
0000
0000
0000
E0E0
E0E0
E0E0
E0E0
E0E0
E0E0
E0E0
E0E0
E0E0
E0E0
E0E0
3F00
3F00
3F00
ENDCHAR
STARTCHAR 00FA
ENCODING 250
SWIDTH 765 0
DWIDTH 17 0
BBX 11 23 3 0
BITMAP
0700
0700
0700
3800
3800
3800
0000
0000
0000
E0E0
E0E0
E0E0
E0E0
E0E0
E0E0
E0E0
E0E0
E0E0
E0E0
E0E0
3F00
3F00
3F00
ENDCHAR
STARTCHAR 00FB
ENCODING 251
SWIDTH 765 0
DWIDTH 17 0
BBX 11 22 3 0
BITMAP
3F00
3F00
E0E0
E0E0
E0E0
0000
0000
0000
E0E0
E0E0
E0E0
E0E0
E0E0
E0E0
E0E0
E0E0
E0E0
E0E0
E0E0
3F00
3F00
3F00
ENDCHAR
STARTCHAR 00FC
ENCODING 252
SWIDTH 765 0
DWIDTH 17 0
BBX 11 20 3 0
BITMAP
E0E0
E0E0
E0E0
0000
0000
0000
E0E0
E0E0
E0E0
E0E0
E0E0
E0E0
E0E0
E0E0
E0E0
E0E0
E0E0
3F00
3F00
3F00
ENDCHAR
STARTCHAR 00FD
ENCODING 253
SWIDTH 855 0
DWIDTH 19 0
BBX 14 23 3 0
BITMAP
00E0
00E0
00E0
0700
0700
0700
0000
0000
0000
E01C
E01C
E01C
38E0
38E0
38E0
0700
0700
0700
0700
0700
0700
0700
0700
ENDCHAR
STARTCHAR 00FE
ENCODING 254
SWIDTH 630 0
DWIDTH 14 0
BBX 8 14 3 0
BITMAP
E0
E0
E0
F8
F8
F8
E7
E7
F8
F8
F8
E0
E0
E0
ENDCHAR
STARTCHAR 00FF
ENCODING 255
SWIDTH 855 0
DWIDTH 19 0
BBX 14 20 3 0
BITMAP
38E0
38E0
38E0
0000
0000
0000
E01C
E01C
E01C
38E0
38E0
38E0
0700
0700
0700
0700
0700
0700
0700
0700
ENDCHAR
STARTCHAR 0152
ENCODING 338
SWIDTH 855 0
DWIDTH 19 0
BBX 14 14 3 0
BITMAP
3FFC
3FFC
3FFC
E700
E700
E700
E7FC
E7FC
E7FC
E700
E700
3FFC
3FFC
3FFC
ENDCHAR
STARTCHAR 0153
ENCODING 339
SWIDTH 855 0
DWIDTH 19 0
BBX 14 14 3 0
BITMAP
3FFC
3FFC
3FFC
E700
E700
E700
E7FC
E7FC
E7FC
E700
E700
3FFC
3FFC
3FFC
ENDCHAR
STARTCHAR 0160
ENCODING 352
SWIDTH 765 0
DWIDTH 17 0
BBX 11 22 3 0
BITMAP
E0E0
E0E0
3F00
3F00
3F00
0000
0000
0000
3FE0
3FE0
3FE0
E000
E000
E000
3F00
3F00
00E0
00E0
00E0
FF00
FF00
FF00
ENDCHAR
STARTCHAR 0161
ENCODING 353
SWIDTH 765 0
DWIDTH 17 0
BBX 11 22 3 0
BITMAP
E0E0
E0E0
3F00
3F00
3F00
0000
0000
0000
3FE0
3FE0
3FE0
E000
E000
E000
3F00
3F00
00E0
00E0
00E0
FF00
FF00
FF00
ENDCHAR
STARTCHAR 0178
ENCODING 376
SWIDTH 855 0
DWIDTH 19 0
BBX 14 20 3 0
BITMAP
38E0
38E0
38E0
0000
0000
0000
E01C
E01C
E01C
38E0
38E0
38E0
0700
0700
0700
0700
0700
0700
0700
0700
ENDCHAR
STARTCHAR 017D
ENCODING 381
SWIDTH 630 0
DWIDTH 14 0
BBX 8 22 3 0
BITMAP
E7
E7
38
38
38
00
00
00
FF
FF
FF
07
07
07
38
38
E0
E0
E0
FF
FF
FF
ENDCHAR
STARTCHAR 017E
ENCODING 382
SWIDTH 630 0
DWIDTH 14 0
BBX 8 22 3 0
BITMAP
E7
E7
38
38
38
00
00
00
FF
FF
FF
07
07
07
38
38
E0
E0
E0
FF
FF
FF
ENDCHAR
STARTCHAR 0192
ENCODING 402
SWIDTH 855 0
DWIDTH 19 0
BBX 14 17 3 -3
BITMAP
07FC
07FC
07FC
0700
0700
0700
3FE0
3FE0
3FE0
3800
3800
3800
3800
3800
E000
E000
E000
ENDCHAR
STARTCHAR 02C6
ENCODING 710
SWIDTH 630 0
DWIDTH 14 0
BBX 8 6 3 17
BITMAP
38
38
38
E7
E7
E7
ENDCHAR
STARTCHAR 02DC
ENCODING 732
SWIDTH 765 0
DWIDTH 17 0
BBX 11 6 3 17
BITMAP
38E0
38E0
38E0
E700
E700
E700
ENDCHAR
STARTCHAR 0300
ENCODING 768
SWIDTH 0 0
DWIDTH 0 0
BBX 5 6 3 17
BITMAP
E0
E0
E0
38
38
38
ENDCHAR
STARTCHAR 0301
ENCODING 769
SWIDTH 0 0
DWIDTH 0 0
BBX 5 6 3 17
BITMAP
38
38
38
E0
E0
E0
ENDCHAR
STARTCHAR 0302
ENCODING 770
SWIDTH 0 0
DWIDTH 0 0
BBX 8 6 3 17
BITMAP
38
38
38
E7
E7
E7
ENDCHAR
STARTCHAR 0303
ENCODING 771
SWIDTH 0 0
DWIDTH 0 0
BBX 11 6 3 17
BITMAP
38E0
38E0
38E0
E700
E700
E700
ENDCHAR
STARTCHAR 0304
ENCODING 772
SWIDTH 0 0
DWIDTH 0 0
BBX 11 3 3 11
BITMAP
FFE0
FFE0
FFE0
ENDCHAR
STARTCHAR 0308
ENCODING 776
SWIDTH 0 0
DWIDTH 0 0
BBX 8 3 3 20
BITMAP
E7
E7
E7
ENDCHAR
STARTCHAR 0327
ENCODING 807
SWIDTH 0 0
DWIDTH 0 0
BBX 5 6 3 -6
BITMAP
18
18
18
E0
E0
E0
ENDCHAR
STARTCHAR 2013
ENCODING 8211
SWIDTH 765 0
DWIDTH 17 0
BBX 11 3 3 6
BITMAP
FFE0
FFE0
FFE0
ENDCHAR
STARTCHAR 2014
ENCODING 8212
SWIDTH 990 0
DWIDTH 22 0
BBX 16 3 3 6
BITMAP
FFFF
FFFF
FFFF
ENDCHAR
STARTCHAR 2018
ENCODING 8216
SWIDTH 360 0
DWIDTH 8 0
BBX 3 6 3 8
BITMAP
E0
E0
E0
E0
E0
E0
ENDCHAR
STARTCHAR 2019
ENCODING 8217
SWIDTH 360 0
DWIDTH 8 0
BBX 3 6 3 8
BITMAP
E0
E0
E0
E0
E0
E0
ENDCHAR
STARTCHAR 201A
ENCODING 8218
SWIDTH 495 0
DWIDTH 11 0
BBX 5 6 3 -3
BITMAP
38
38
38
E0
E0
E0
ENDCHAR
STARTCHAR 201C
ENCODING 8220
SWIDTH 630 0
DWIDTH 14 0
BBX 8 6 3 8
BITMAP
E7
E7
E7
E7
E7
E7
ENDCHAR
STARTCHAR 201D
ENCODING 8221
SWIDTH 630 0
DWIDTH 14 0
BBX 8 6 3 8
BITMAP
E7
E7
E7
E7
E7
E7
ENDCHAR
STARTCHAR 201E
ENCODING 8222
SWIDTH 630 0
DWIDTH 14 0
BBX 8 6 3 0
BITMAP
E7
E7
E7
E7
E7
E7
ENDCHAR
STARTCHAR 2020
ENCODING 8224
SWIDTH 630 0
DWIDTH 14 0
BBX 8 14 3 0
BITMAP
38
38
38
FF
FF
FF
38
38
38
38
38
38
38
38
ENDCHAR
STARTCHAR 2021
ENCODING 8225
SWIDTH 630 0
DWIDTH 14 0
BBX 8 14 3 0
BITMAP
38
38
38
FF
FF
FF
38
38
FF
FF
FF
38
38
38
ENDCHAR
STARTCHAR 2022
ENCODING 8226
SWIDTH 360 0
DWIDTH 8 0
BBX 3 3 3 6
BITMAP
E0
E0
E0
ENDCHAR
STARTCHAR 2026
ENCODING 8230
SWIDTH 855 0
DWIDTH 19 0
BBX 14 3 3 0
BITMAP
E71C
E71C
E71C
ENDCHAR
STARTCHAR 2030
ENCODING 8240
SWIDTH 990 0
DWIDTH 22 0
BBX 16 14 3 0
BITMAP
F8E0
F8E0
F8E0
F8E0
F8E0
F8E0
0700
0700
38E7
38E7
38E7
38E7
38E7
38E7
ENDCHAR
STARTCHAR 2039
ENCODING 8249
SWIDTH 495 0
DWIDTH 11 0
BBX 5 8 3 3
BITMAP
38
38
E0
E0
E0
38
38
38
ENDCHAR
STARTCHAR 203A
ENCODING 8250
SWIDTH 495 0
DWIDTH 11 0
BBX 5 8 3 3
BITMAP
E0
E0
38
38
38
E0
E0
E0
ENDCHAR
STARTCHAR 20AC
ENCODING 8364
SWIDTH 855 0
DWIDTH 19 0
BBX 14 14 3 0
BITMAP
07E0
07E0
07E0
381C
381C
381C
FF00
FF00
381C
381C
381C
07E0
07E0
07E0
ENDCHAR
STARTCHAR 2122
ENCODING 8482
SWIDTH 1260 0
DWIDTH 28 0
BBX 22 8 3 8
BITMAP
FFFCFC
FFFCFC
38E71C
38E71C
38E71C
38E71C
38E71C
38E71C
ENDCHAR
ENDFONT
